<svg width="48" height="48" viewBox="0 0 48 48" fill="none" xmlns="http://www.w3.org/2000/svg">
<rect width="48" height="48" rx="8" fill="#34B1FE"/>
<path d="M24.0175 26.4514C23.006 26.4514 21.9944 26.1978 21.0914 25.6938L12.3681 20.818C11.3456 20.2479 10.7367 19.2308 10.7352 18.1011C10.7352 16.9715 11.3456 15.9559 12.3681 15.3843L21.0914 10.5071C22.8974 9.50048 25.1392 9.50048 26.9421 10.5056L26.9437 10.5071L35.667 15.3843C36.6896 15.9559 37.3 16.9715 37.3 18.1011C37.3 19.2323 36.6896 20.2479 35.6654 20.818L26.9437 25.6938C26.0422 26.1978 25.0307 26.4514 24.0175 26.4514Z" fill="white"/>
<path d="M28.0937 27.6346L32.6721 25.0752L36.0076 27.1534C36.9704 27.755 37.5273 28.7692 37.499 29.8658C37.4707 30.9625 36.8618 31.9496 35.8676 32.5047L26.9397 37.4944C26.0383 37.9999 25.0267 38.252 24.0152 38.252C23.0036 38.252 21.992 37.9999 21.089 37.4944L12.1314 32.4867C11.1434 31.9361 10.5346 30.955 10.5015 29.8628C10.4669 28.7707 11.0175 27.7565 11.9709 27.1504L15.2977 25.0397L19.9398 27.6346C21.1984 28.3367 22.6079 28.6877 24.0175 28.6877C25.4271 28.6877 26.8367 28.3367 28.0937 27.6346Z" fill="white"/>
</svg>
