<svg width="48" height="48" viewBox="0 0 48 48" fill="none" xmlns="http://www.w3.org/2000/svg">
<rect width="48" height="48" rx="8" fill="#34B1FE"/>
<path fill-rule="evenodd" clip-rule="evenodd" d="M29.5635 25.8543H24.993C24.372 25.8543 23.868 25.3503 23.868 24.7293C23.868 24.1083 24.372 23.6043 24.993 23.6043H29.5635C30.1845 23.6043 30.6885 24.1083 30.6885 24.7293C30.6885 25.3503 30.1845 25.8543 29.5635 25.8543ZM21.1935 35.7633L21.843 31.7598H26.1555L26.8065 35.7633H21.1935ZM19.23 24.7323C19.011 24.9528 18.723 25.0623 18.435 25.0623C18.147 25.0623 17.859 24.9528 17.64 24.7323C17.2005 24.2928 17.2005 23.5818 17.64 23.1423L20.1255 20.6553L17.64 18.1683C17.2005 17.7288 17.2005 17.0178 17.64 16.5783C18.0795 16.1388 18.7905 16.1388 19.23 16.5783L22.512 19.8603C22.9515 20.2998 22.9515 21.0108 22.512 21.4503L19.23 24.7323ZM31.4565 9.9873H16.542C12.7965 9.9873 9.75 13.0353 9.75 16.7808V24.9663C9.75 28.7118 12.7965 31.7598 16.542 31.7598H19.5645L18.9135 35.7633H16.5825C15.9615 35.7633 15.4575 36.2673 15.4575 36.8883C15.4575 37.5093 15.9615 38.0133 16.5825 38.0133H31.416C32.037 38.0133 32.541 37.5093 32.541 36.8883C32.541 36.2673 32.037 35.7633 31.416 35.7633H29.0865L28.434 31.7598H31.4565C35.202 31.7598 38.25 28.7118 38.25 24.9663V16.7808C38.25 13.0353 35.202 9.9873 31.4565 9.9873Z" fill="white"/>
</svg>
