<svg width="48" height="48" viewBox="0 0 48 48" fill="none" xmlns="http://www.w3.org/2000/svg">
<rect width="48" height="48" rx="8" fill="#34B1FE"/>
<path d="M20.024 28.2866C26.002 28.2866 31.048 29.2367 31.048 32.9105C31.048 36.5815 25.9697 37.5 20.024 37.5L19.6179 37.4985C13.8192 37.4554 9 36.4664 9 32.8761C9 29.2051 14.0783 28.2866 20.024 28.2866ZM29.3545 26.0748C31.628 26.0317 34.0732 26.3378 34.9759 26.5534C36.8898 26.92 38.1476 27.666 38.6687 28.754C39.1104 29.6452 39.1104 30.6801 38.6687 31.5712C37.8717 33.2558 35.3003 33.7977 34.3007 33.9371C34.0938 33.9659 33.9279 33.7934 33.95 33.5893C34.4607 28.9208 30.3996 26.7072 29.3487 26.1984C29.3046 26.174 29.2944 26.1395 29.2988 26.1165C29.3017 26.1021 29.3208 26.0791 29.3545 26.0748ZM20.024 10.5C24.0734 10.5 27.3185 13.678 27.3185 17.6436C27.3185 21.6093 24.0734 24.7872 20.024 24.7872C15.976 24.7872 12.7295 21.6093 12.7295 17.6436C12.7295 13.678 15.976 10.5 20.024 10.5ZM29.7508 11.6931C33.6623 11.6931 36.7327 15.2951 35.6863 19.3068C34.9803 22.0104 32.425 23.8057 29.5776 23.7324C29.2914 23.7266 29.0111 23.6993 28.7381 23.6547C28.5414 23.6203 28.4416 23.4032 28.5546 23.2422C29.6408 21.677 30.2601 19.7926 30.2601 17.7731C30.2601 15.6631 29.585 13.6982 28.4093 12.0841C28.3712 12.0338 28.3433 11.9576 28.3815 11.8987C28.4108 11.8527 28.4695 11.8268 28.5238 11.8153C28.9201 11.7363 29.3267 11.6931 29.7508 11.6931Z" fill="white"/>
</svg>
