<svg width="48" height="48" viewBox="0 0 48 48" fill="none" xmlns="http://www.w3.org/2000/svg">
<rect width="48" height="48" rx="8" fill="#34B1FE"/>
<path fill-rule="evenodd" clip-rule="evenodd" d="M31.8645 24.7965L27.8895 28.77C27.6705 28.9905 27.3825 29.1 27.0945 29.1C26.8065 29.1 26.5185 28.9905 26.2995 28.77C25.86 28.3305 25.86 27.6195 26.2995 27.18L29.478 24.0015L26.2995 20.823C25.86 20.3835 25.86 19.671 26.2995 19.2315C26.739 18.792 27.45 18.792 27.8895 19.2315L31.8645 23.205C32.076 23.4165 32.1945 23.703 32.1945 24.0015C32.1945 24.2985 32.076 24.585 31.8645 24.7965ZM21.702 27.18C22.1415 27.6195 22.1415 28.3305 21.702 28.77C21.483 28.9905 21.195 29.1 20.907 29.1C20.619 29.1 20.331 28.9905 20.112 28.77L16.1385 24.7965C15.699 24.357 15.699 23.6445 16.1385 23.205L20.112 19.2315C20.5515 18.792 21.2625 18.792 21.702 19.2315C22.1415 19.671 22.1415 20.3835 21.702 20.823L18.5235 24.0015L21.702 27.18ZM30.327 9.75H17.6745C12.9345 9.75 9.75 13.08 9.75 18.039V29.9595C9.75 34.9185 12.9345 38.25 17.6745 38.25H30.3255C35.0655 38.25 38.25 34.9185 38.25 29.9595V18.039C38.25 13.08 35.0655 9.75 30.327 9.75Z" fill="white"/>
</svg>
