<svg width="48" height="48" viewBox="0 0 48 48" fill="none" xmlns="http://www.w3.org/2000/svg">
<rect width="48" height="48" rx="8" fill="#34B1FE"/>
<path fill-rule="evenodd" clip-rule="evenodd" d="M17.0251 13.0305H17.7751C18.3961 13.0305 18.9001 13.5345 18.9001 14.1555C18.9001 14.7765 18.3961 15.2805 17.7751 15.2805H17.0251C16.4041 15.2805 15.9001 14.7765 15.9001 14.1555C15.9001 13.5345 16.4041 13.0305 17.0251 13.0305ZM25.5751 13.0305H30.9751C31.5961 13.0305 32.1001 13.5345 32.1001 14.1555C32.1001 14.7765 31.5961 15.2805 30.9751 15.2805H25.5751C24.9541 15.2805 24.4501 14.7765 24.4501 14.1555C24.4501 13.5345 24.9541 13.0305 25.5751 13.0305ZM37.9501 17.937C38.1158 17.937 38.2501 17.8027 38.2501 17.637V16.35C38.2501 12.6495 35.3506 9.75 31.6501 9.75H16.3501C12.6496 9.75 9.75012 12.6495 9.75012 16.35V17.637C9.75012 17.8027 9.88444 17.937 10.0501 17.937H37.9501Z" fill="white"/>
<path fill-rule="evenodd" clip-rule="evenodd" d="M30.9748 25.095H25.5748C24.9538 25.095 24.4498 24.591 24.4498 23.97C24.4498 23.349 24.9538 22.845 25.5748 22.845H30.9748C31.5958 22.845 32.0998 23.349 32.0998 23.97C32.0998 24.591 31.5958 25.095 30.9748 25.095ZM17.7748 25.095H17.0248C16.4038 25.095 15.8998 24.591 15.8998 23.97C15.8998 23.349 16.4038 22.845 17.0248 22.845H17.7748C18.3958 22.845 18.8998 23.349 18.8998 23.97C18.8998 24.591 18.3958 25.095 17.7748 25.095ZM9.74976 27.453C9.74976 27.6186 9.88407 27.753 10.0498 27.753H37.9498C38.1154 27.753 38.2498 27.6186 38.2498 27.453V20.4885C38.2498 20.3228 38.1154 20.1885 37.9498 20.1885H10.0498C9.88407 20.1885 9.74976 20.3228 9.74976 20.4885V27.453Z" fill="white"/>
<path fill-rule="evenodd" clip-rule="evenodd" d="M30.9748 34.9095H25.5748C24.9538 34.9095 24.4498 34.4055 24.4498 33.7845C24.4498 33.1635 24.9538 32.6595 25.5748 32.6595H30.9748C31.5958 32.6595 32.0998 33.1635 32.0998 33.7845C32.0998 34.4055 31.5958 34.9095 30.9748 34.9095ZM17.7748 34.9095H17.0248C16.4038 34.9095 15.8998 34.4055 15.8998 33.7845C15.8998 33.1635 16.4038 32.6595 17.0248 32.6595H17.7748C18.3958 32.6595 18.8998 33.1635 18.8998 33.7845C18.8998 34.4055 18.3958 34.9095 17.7748 34.9095ZM10.0498 30.003C9.88407 30.003 9.74976 30.1372 9.74976 30.303V31.65C9.74976 35.2905 12.7108 38.25 16.3498 38.25H31.6498C35.3503 38.25 38.2498 35.352 38.2498 31.65V30.303C38.2498 30.1372 38.1154 30.003 37.9498 30.003H10.0498Z" fill="white"/>
</svg>
