<svg width="48" height="48" viewBox="0 0 48 48" fill="none" xmlns="http://www.w3.org/2000/svg">
<rect width="48" height="48" rx="8" fill="#34B1FE"/>
<path fill-rule="evenodd" clip-rule="evenodd" d="M29.2377 20.4493H19.6632C19.0422 20.4493 18.5382 19.9453 18.5382 19.3243C18.5382 18.7033 19.0422 18.1993 19.6632 18.1993H29.2377C29.8587 18.1993 30.3627 18.7033 30.3627 19.3243C30.3627 19.9453 29.8587 20.4493 29.2377 20.4493ZM25.1577 26.1852H19.6632C19.0422 26.1852 18.5382 25.6812 18.5382 25.0602C18.5382 24.4392 19.0422 23.9352 19.6632 23.9352H25.1577C25.7787 23.9352 26.2827 24.4392 26.2827 25.0602C26.2827 25.6812 25.7787 26.1852 25.1577 26.1852ZM32.0427 11.0098H16.8597C13.3947 11.0098 10.5762 13.8373 10.5762 17.3128V27.7212C10.5762 31.1982 13.3947 34.0257 16.8597 34.0257H18.4632C19.2162 34.0257 19.9542 34.3317 20.4852 34.8657L22.6167 37.0062C23.1087 37.4982 23.7597 37.7682 24.4512 37.7682C25.1427 37.7682 25.7952 37.4982 26.2842 37.0062L28.4172 34.8672C28.9497 34.3317 29.6877 34.0257 30.4407 34.0257H32.0427C35.5062 34.0257 38.3262 31.1982 38.3262 27.7212V17.3128C38.3262 13.8373 35.5062 11.0098 32.0427 11.0098Z" fill="white"/>
</svg>
