<svg width="48" height="48" viewBox="0 0 48 48" fill="none" xmlns="http://www.w3.org/2000/svg">
<rect width="48" height="48" rx="8" fill="#34B1FE"/>
<path d="M24.8561 9.14935L34.8123 12.4898C35.9267 12.8619 36.6803 13.8857 36.6863 15.033L36.7497 24.994C36.7694 28.0137 35.6685 30.9423 33.6525 33.2369C32.7253 34.2901 31.5369 35.1947 30.0192 36.0037L24.6674 38.8646C24.4998 38.9529 24.3155 38.9985 24.1298 39C23.944 39.0014 23.7583 38.9573 23.5922 38.8705L18.1905 36.0758C16.6563 35.28 15.4572 34.3886 14.521 33.3502C12.4717 31.0791 11.3331 28.1638 11.3135 25.1396L11.25 15.1859C11.244 14.0372 11.984 13.0061 13.0924 12.6192L23.0108 9.15964C23.5997 8.95077 24.2566 8.94636 24.8561 9.14935ZM29.6172 19.828C29.1717 19.3999 28.4544 19.4029 28.015 19.8368L22.9622 24.8173L20.8933 22.8286C20.4478 22.4006 19.732 22.405 19.2911 22.8389C18.8517 23.2728 18.8562 23.9701 19.3017 24.3981L22.1754 27.1634C22.3989 27.3781 22.6888 27.4841 22.9788 27.4812C23.2687 27.4796 23.5571 27.3708 23.7776 27.1531L29.6263 21.3871C30.0657 20.9532 30.0612 20.256 29.6172 19.828Z" fill="white"/>
</svg>
