<svg width="48" height="48" viewBox="0 0 48 48" fill="none" xmlns="http://www.w3.org/2000/svg">
<rect width="48" height="48" rx="8" fill="#34B1FE"/>
<path fill-rule="evenodd" clip-rule="evenodd" d="M24.8327 31.9205L21.3767 35.132C20.9537 35.5265 20.2652 35.2025 20.3042 34.625C20.4122 32.993 20.5802 30.5135 20.6927 29.135C20.7107 28.9175 20.8937 28.6745 21.0677 28.517C25.1042 24.857 29.1497 21.206 33.1937 17.552C33.3437 17.417 33.5207 17.084 33.4277 16.9085C33.3227 16.7105 32.8382 16.7705 32.6372 16.8965C27.5012 20.1305 22.3652 23.363 17.2367 26.6075C16.9217 26.8055 16.5362 26.8535 16.1822 26.7395C14.0672 26.06 11.9402 25.4165 9.82069 24.7475C9.33319 24.593 8.75419 24.44 8.69869 23.8355C8.64019 23.204 9.18169 22.904 9.67069 22.7075C11.6417 21.9125 13.6262 21.152 15.6077 20.387C22.7357 17.6405 29.8637 14.8955 36.9917 12.1505C37.2302 12.059 37.5482 12.002 37.7972 11.9525C38.5442 11.8025 39.2162 12.1775 39.2897 12.9335C39.3452 13.487 39.2477 14.1035 39.1322 14.651C37.6472 21.7145 36.1427 28.775 34.6397 35.837C34.2347 37.745 33.2537 38.1065 31.6742 36.941C29.6387 35.438 24.8327 31.9205 24.8327 31.9205Z" fill="white"/>
</svg>
