<svg width="48" height="48" viewBox="0 0 48 48" fill="none" xmlns="http://www.w3.org/2000/svg">
<rect width="48" height="48" rx="8" fill="#34B1FE"/>
<path fill-rule="evenodd" clip-rule="evenodd" d="M17.8502 23.9995C17.8502 22.5355 17.9402 21.07 18.1097 19.66C15.5702 19.3675 13.1762 18.8995 10.9622 18.2695C10.1882 20.0245 9.75024 21.961 9.75024 23.9995C9.75024 26.038 10.1867 27.973 10.9607 29.728C13.1807 29.095 15.5762 28.6255 18.1097 28.3345C17.9402 26.926 17.8502 25.462 17.8502 23.9995Z" fill="white"/>
<path fill-rule="evenodd" clip-rule="evenodd" d="M27.2815 17.6315C26.4865 13.847 25.078 11.624 23.9995 11.624C22.921 11.624 21.514 13.847 20.719 17.6315C22.8985 17.7755 25.093 17.7755 27.2815 17.6315Z" fill="white"/>
<path fill-rule="evenodd" clip-rule="evenodd" d="M20.7173 30.363C21.5123 34.1505 22.9208 36.375 23.9993 36.375C25.0793 36.375 26.4878 34.1505 27.2828 30.363C25.0943 30.2175 22.8998 30.2175 20.7173 30.363Z" fill="white"/>
<path fill-rule="evenodd" clip-rule="evenodd" d="M29.8901 19.661C30.0596 21.071 30.1496 22.5365 30.1496 24.0005C30.1496 25.463 30.0596 26.9255 29.8901 28.334C32.4236 28.625 34.8191 29.0945 37.0391 29.726C37.8131 27.9725 38.2496 26.0375 38.2496 24.0005C38.2496 21.962 37.8116 20.027 37.0376 18.2705C34.8236 18.902 32.4281 19.37 29.8901 19.661Z" fill="white"/>
<path fill-rule="evenodd" clip-rule="evenodd" d="M29.5462 30.5586C28.8472 34.1361 27.5422 37.0476 25.6687 38.1426C29.9677 37.6386 33.6817 35.2161 35.9392 31.7541C33.9457 31.2156 31.8067 30.8121 29.5462 30.5586Z" fill="white"/>
<path fill-rule="evenodd" clip-rule="evenodd" d="M18.4543 30.5596C16.1938 30.8146 14.0548 31.2181 12.0613 31.7566C14.3188 35.2186 18.0328 37.6396 22.3317 38.1436C20.4583 37.0471 19.1533 34.1371 18.4543 30.5596Z" fill="white"/>
<path fill-rule="evenodd" clip-rule="evenodd" d="M18.455 17.435C19.154 13.8605 20.459 10.9505 22.331 9.85547C18.0335 10.3595 14.321 12.7805 12.0635 16.2395C14.051 16.7765 16.19 17.18 18.455 17.435Z" fill="white"/>
<path fill-rule="evenodd" clip-rule="evenodd" d="M20.3506 19.8594C20.1931 21.1239 20.1001 22.5054 20.1001 23.9994C20.1001 25.4919 20.1931 26.8734 20.3506 28.1364C22.7761 27.9654 25.2166 27.9654 27.6496 28.1364C27.8071 26.8734 27.9001 25.4919 27.9001 23.9994C27.9001 22.5054 27.8071 21.1239 27.6496 19.8594C26.4331 19.9449 25.2151 20.0034 23.9971 20.0034C22.7791 20.0034 21.5626 19.9449 20.3506 19.8594Z" fill="white"/>
<path fill-rule="evenodd" clip-rule="evenodd" d="M29.5455 17.4365C31.8105 17.1815 33.9495 16.778 35.937 16.2425C33.681 12.782 29.967 10.361 25.668 9.85547C27.5415 10.952 28.8465 13.8605 29.5455 17.4365Z" fill="white"/>
</svg>
