<svg width="64" height="64" viewBox="0 0 64 64" fill="none" xmlns="http://www.w3.org/2000/svg">
<path fill-rule="evenodd" clip-rule="evenodd" d="M42.6481 27.259L30.3334 39.5737C29.9414 39.9657 29.4321 40.1603 28.9201 40.1603C28.4054 40.1603 27.8961 39.9657 27.5041 39.5737L21.3467 33.4163C20.5654 32.635 20.5654 31.3683 21.3467 30.587C22.1281 29.8057 23.3921 29.8057 24.1734 30.587L28.9201 35.331L39.8187 24.4297C40.6001 23.6483 41.8667 23.6483 42.6481 24.4297C43.4294 25.211 43.4294 26.4777 42.6481 27.259ZM32.0001 6.66699C18.0321 6.66699 6.66675 18.0323 6.66675 32.0003C6.66675 45.971 18.0321 57.3337 32.0001 57.3337C45.9681 57.3337 57.3334 45.971 57.3334 32.0003C57.3334 18.0323 45.9681 6.66699 32.0001 6.66699Z" fill="#34B1FE"/>
</svg>
