<svg width="32" height="32" viewBox="0 0 32 32" fill="none" xmlns="http://www.w3.org/2000/svg">
<rect width="32" height="32" rx="8" fill="#34B1FE"/>
<path d="M16.0117 17.6339C15.3373 17.6339 14.6629 17.4649 14.0609 17.1288L8.24542 13.8784C7.5637 13.4983 7.15782 12.8202 7.15677 12.0671C7.15677 11.314 7.5637 10.6369 8.24542 10.2559L14.0609 7.00442C15.2649 6.33333 16.7595 6.33333 17.9614 7.00342L17.9624 7.00442L23.778 10.2559C24.4597 10.6369 24.8666 11.314 24.8666 12.0671C24.8666 12.8212 24.4597 13.4983 23.7769 13.8784L17.9624 17.1288C17.3615 17.4649 16.6871 17.6339 16.0117 17.6339Z" fill="white"/>
<path d="M18.7291 18.4227L21.7814 16.7165L24.0051 18.102C24.6469 18.503 25.0182 19.1791 24.9993 19.9102C24.9804 20.6413 24.5746 21.2994 23.9117 21.6695L17.9598 24.9959C17.3589 25.333 16.6845 25.501 16.0101 25.501C15.3357 25.501 14.6614 25.333 14.0594 24.9959L8.08758 21.6575C7.42893 21.2904 7.02305 20.6363 7.00103 19.9082C6.97795 19.1801 7.34503 18.504 7.9806 18.1L10.1984 16.6928L13.2932 18.4227C14.1322 18.8908 15.072 19.1248 16.0117 19.1248C16.9514 19.1248 17.8911 18.8908 18.7291 18.4227Z" fill="white"/>
</svg>
