<svg width="32" height="32" viewBox="0 0 32 32" fill="none" xmlns="http://www.w3.org/2000/svg">
<rect width="32" height="32" rx="8" fill="#34B1FE"/>
<path fill-rule="evenodd" clip-rule="evenodd" d="M19.709 17.2362H16.662C16.248 17.2362 15.912 16.9002 15.912 16.4862C15.912 16.0722 16.248 15.7362 16.662 15.7362H19.709C20.123 15.7362 20.459 16.0722 20.459 16.4862C20.459 16.9002 20.123 17.2362 19.709 17.2362ZM14.129 23.8422L14.562 21.1732H17.437L17.871 23.8422H14.129ZM12.82 16.4882C12.674 16.6352 12.482 16.7082 12.29 16.7082C12.098 16.7082 11.906 16.6352 11.76 16.4882C11.467 16.1952 11.467 15.7212 11.76 15.4282L13.417 13.7702L11.76 12.1122C11.467 11.8192 11.467 11.3452 11.76 11.0522C12.053 10.7592 12.527 10.7592 12.82 11.0522L15.008 13.2402C15.301 13.5332 15.301 14.0072 15.008 14.3002L12.82 16.4882ZM20.971 6.6582H11.028C8.531 6.6582 6.5 8.6902 6.5 11.1872V16.6442C6.5 19.1412 8.531 21.1732 11.028 21.1732H13.043L12.609 23.8422H11.055C10.641 23.8422 10.305 24.1782 10.305 24.5922C10.305 25.0062 10.641 25.3422 11.055 25.3422H20.944C21.358 25.3422 21.694 25.0062 21.694 24.5922C21.694 24.1782 21.358 23.8422 20.944 23.8422H19.391L18.956 21.1732H20.971C23.468 21.1732 25.5 19.1412 25.5 16.6442V11.1872C25.5 8.6902 23.468 6.6582 20.971 6.6582Z" fill="white"/>
</svg>
