<svg width="159" height="60" viewBox="0 0 159 60" fill="none" xmlns="http://www.w3.org/2000/svg">
<path d="M25.4905 8L1.1113 27.6849L25.4899 27.6849L34.6143 20.3031V27.6849L55.9046 27.6849V8L25.4905 8Z" fill="#34B1FE"/>
<path d="M30.4141 52L54.7933 32.3151L30.4147 32.3151L21.2903 39.6969V32.3151L0 32.3151L1.69065e-06 52H30.4141Z" fill="#34B1FE"/>
<path d="M62.0003 27.7999H65.0095L67.3265 17.5999L71.2384 13.9999H89.7446V27.7999H92.7537V37.9999H83.8467L83.7564 34.9999H70.9976L70.9074 37.9999H62.0003V27.7999ZM74.4582 27.7999H80.4463V21.3199H75.8123L74.4582 27.7999Z" fill="#071924"/>
<path d="M97.6967 27.6799L100.014 17.5999L103.926 13.9999H123.034V34.9999H113.735V21.3199H108.499L105.641 34.9999H95.7293L97.6967 27.6799Z" fill="#071924"/>
<path d="M138.328 34.9999L136.612 27.0799H135.86L134.476 34.9999H125.148L129.481 13.9999H138.809L141.337 24.0499H142.781L145.369 13.9999H154.697L159 34.9999H149.672L148.258 27.0799H147.505L145.79 34.9999H138.328Z" fill="#071924"/>
<path d="M67.6303 49.9999L66.9703 47.9499H64.0403L63.3903 49.9999H62.1903L64.5603 42.8599H66.4803L68.8603 49.9999H67.6303ZM65.2803 44.0299L64.3803 46.8799H66.6203L65.7103 44.0299H65.2803Z" fill="#071924"/>
<path d="M75.4311 49.9999V44.9099H79.4011V45.8699H76.5611V49.9999H75.4311Z" fill="#071924"/>
<path d="M90.4744 47.1699V47.5499H86.7144C86.7477 48.6299 87.2244 49.1699 88.1444 49.1699C88.7244 49.1699 89.0944 48.9532 89.2544 48.5199H90.4044C90.3044 49.0132 90.0611 49.4065 89.6744 49.6999C89.2877 49.9865 88.7744 50.1299 88.1344 50.1299C87.3477 50.1299 86.7277 49.8799 86.2744 49.3799C85.8211 48.8799 85.5944 48.2266 85.5944 47.4199C85.5944 46.6199 85.8177 45.9799 86.2644 45.4999C86.7177 45.0199 87.3311 44.7799 88.1044 44.7799C88.8377 44.7799 89.4111 45.0065 89.8244 45.4599C90.2444 45.9065 90.4611 46.4766 90.4744 47.1699ZM88.0944 45.6799C87.3611 45.6799 86.9177 46.0232 86.7644 46.7099H89.3144C89.2744 46.4099 89.1511 46.1632 88.9444 45.9699C88.7377 45.7766 88.4544 45.6799 88.0944 45.6799Z" fill="#071924"/>
<path d="M102.044 49.9999H100.914V47.8699H98.4545V49.9999H97.3245V44.9099H98.4545V46.9099H100.914V44.9099H102.044V49.9999Z" fill="#071924"/>
<path d="M108.724 45.8699V44.9099H113.284V45.8699H111.574V49.9999H110.444V45.8699H108.724Z" fill="#071924"/>
<path d="M123.251 48.3699H124.371C124.291 48.9032 124.048 49.3299 123.641 49.6499C123.241 49.9699 122.738 50.1299 122.131 50.1299C121.351 50.1299 120.735 49.8832 120.281 49.3899C119.835 48.8899 119.611 48.2432 119.611 47.4499C119.611 46.6565 119.835 46.0132 120.281 45.5199C120.735 45.0266 121.351 44.7799 122.131 44.7799C122.745 44.7799 123.245 44.9332 123.631 45.2399C124.025 45.5466 124.258 45.9532 124.331 46.4599H123.211C123.045 45.9799 122.688 45.7399 122.141 45.7399C121.668 45.7399 121.315 45.8999 121.081 46.2199C120.855 46.5399 120.741 46.9466 120.741 47.4399C120.741 47.9466 120.855 48.3632 121.081 48.6899C121.315 49.0099 121.668 49.1699 122.141 49.1699C122.768 49.1699 123.138 48.9032 123.251 48.3699Z" fill="#071924"/>
<path d="M130.715 45.8699V44.9099H135.275V45.8699H133.565V49.9999H132.435V45.8699H130.715Z" fill="#071924"/>
<path d="M145.711 47.1899V47.4199C145.964 47.4865 146.168 47.6232 146.321 47.8299C146.481 48.0299 146.561 48.2866 146.561 48.5999C146.561 49.0599 146.404 49.4099 146.091 49.6499C145.784 49.8832 145.341 49.9999 144.761 49.9999H141.951V44.9099H144.671C145.184 44.9099 145.581 45.0232 145.861 45.2499C146.141 45.4765 146.281 45.7932 146.281 46.1999C146.281 46.4265 146.224 46.6299 146.111 46.8099C146.004 46.9832 145.871 47.1099 145.711 47.1899ZM143.061 49.1399H144.551C145.131 49.1399 145.421 48.9165 145.421 48.4699C145.421 48.0165 145.131 47.7899 144.551 47.7899H143.061V49.1399ZM143.061 45.7699V46.9699H144.431C144.678 46.9699 144.858 46.9132 144.971 46.7999C145.091 46.6865 145.151 46.5432 145.151 46.3699C145.151 45.9699 144.911 45.7699 144.431 45.7699H143.061Z" fill="#071924"/>
<path d="M153.81 45.5299C154.277 45.0299 154.904 44.7799 155.69 44.7799C156.477 44.7799 157.1 45.0299 157.56 45.5299C158.027 46.0232 158.26 46.6632 158.26 47.4499C158.26 48.2432 158.027 48.8899 157.56 49.3899C157.1 49.8832 156.477 50.1299 155.69 50.1299C154.904 50.1299 154.277 49.8832 153.81 49.3899C153.35 48.8899 153.12 48.2432 153.12 47.4499C153.12 46.6632 153.35 46.0232 153.81 45.5299ZM154.62 48.6799C154.867 49.0065 155.224 49.1699 155.69 49.1699C156.157 49.1699 156.514 49.0065 156.76 48.6799C157.007 48.3465 157.13 47.9366 157.13 47.4499C157.13 46.9699 157.007 46.5666 156.76 46.2399C156.514 45.9066 156.157 45.7399 155.69 45.7399C155.224 45.7399 154.867 45.9066 154.62 46.2399C154.374 46.5666 154.25 46.9699 154.25 47.4499C154.25 47.9366 154.374 48.3465 154.62 48.6799Z" fill="#071924"/>
</svg>
