<svg width="32" height="32" viewBox="0 0 32 32" fill="none" xmlns="http://www.w3.org/2000/svg">
<rect width="32" height="32" rx="8" fill="#34B1FE"/>
<path d="M16.5708 6.09956L23.2082 8.32652C23.9512 8.57461 24.4535 9.25711 24.4575 10.022L24.4998 16.6626C24.5129 18.6758 23.779 20.6282 22.435 22.1579C21.8169 22.8601 21.0246 23.4631 20.0128 24.0025L16.4449 25.9097C16.3332 25.9686 16.2103 25.999 16.0865 26C15.9627 26.0009 15.8389 25.9715 15.7281 25.9137L12.127 24.0505C11.1042 23.52 10.3048 22.9258 9.68064 22.2335C8.3145 20.7194 7.55542 18.7758 7.54233 16.7597L7.50002 10.124C7.49602 9.35811 7.98932 8.67071 8.72827 8.41281L15.3405 6.10643C15.7332 5.96718 16.1711 5.96424 16.5708 6.09956ZM19.7448 13.2187C19.4478 12.9333 18.9696 12.9353 18.6767 13.2245L15.3081 16.5449L13.9289 15.2191C13.6319 14.9337 13.1547 14.9367 12.8607 15.226C12.5678 15.5152 12.5708 15.98 12.8678 16.2654L14.7836 18.1089C14.9326 18.2521 15.1259 18.3227 15.3192 18.3208C15.5125 18.3198 15.7048 18.2472 15.8517 18.1021L19.7508 14.2581C20.0438 13.9688 20.0408 13.504 19.7448 13.2187Z" fill="white"/>
</svg>
