<svg width="32" height="32" viewBox="0 0 32 32" fill="none" xmlns="http://www.w3.org/2000/svg">
<rect width="32" height="32" rx="8" fill="#34B1FE"/>
<path fill-rule="evenodd" clip-rule="evenodd" d="M11.9002 15.9996C11.9002 15.0236 11.9602 14.0466 12.0732 13.1067C10.3802 12.9117 8.78424 12.5997 7.30824 12.1797C6.79224 13.3497 6.50024 14.6406 6.50024 15.9996C6.50024 17.3586 6.79124 18.6486 7.30724 19.8186C8.78724 19.3966 10.3842 19.0836 12.0732 18.8896C11.9602 17.9506 11.9002 16.9746 11.9002 15.9996Z" fill="white"/>
<path fill-rule="evenodd" clip-rule="evenodd" d="M18.1878 11.754C17.6578 9.23102 16.7188 7.74902 15.9998 7.74902C15.2808 7.74902 14.3428 9.23102 13.8127 11.754C15.2658 11.85 16.7288 11.85 18.1878 11.754Z" fill="white"/>
<path fill-rule="evenodd" clip-rule="evenodd" d="M13.8115 20.2417C14.3415 22.7667 15.2805 24.2497 15.9995 24.2497C16.7195 24.2497 17.6585 22.7667 18.1885 20.2417C16.7295 20.1447 15.2665 20.1447 13.8115 20.2417Z" fill="white"/>
<path fill-rule="evenodd" clip-rule="evenodd" d="M19.9268 13.1077C20.0398 14.0477 20.0998 15.0247 20.0998 16.0007C20.0998 16.9757 20.0398 17.9507 19.9268 18.8897C21.6158 19.0837 23.2128 19.3967 24.6928 19.8177C25.2088 18.6487 25.4998 17.3587 25.4998 16.0007C25.4998 14.6417 25.2078 13.3517 24.6918 12.1807C23.2158 12.6017 21.6188 12.9137 19.9268 13.1077Z" fill="white"/>
<path fill-rule="evenodd" clip-rule="evenodd" d="M19.6973 20.3721C19.2313 22.7571 18.3613 24.6981 17.1123 25.4281C19.9783 25.0921 22.4543 23.4771 23.9593 21.1691C22.6303 20.8101 21.2043 20.5411 19.6973 20.3721Z" fill="white"/>
<path fill-rule="evenodd" clip-rule="evenodd" d="M12.3028 20.373C10.7958 20.543 9.36977 20.812 8.04077 21.171C9.54577 23.479 12.0218 25.093 14.8877 25.429C13.6388 24.698 12.7688 22.758 12.3028 20.373Z" fill="white"/>
<path fill-rule="evenodd" clip-rule="evenodd" d="M12.3032 11.6233C12.7692 9.24031 13.6392 7.30031 14.8872 6.57031C12.0222 6.90631 9.54724 8.52031 8.04224 10.8263C9.36724 11.1843 10.7932 11.4533 12.3032 11.6233Z" fill="white"/>
<path fill-rule="evenodd" clip-rule="evenodd" d="M13.5671 13.2393C13.4621 14.0823 13.4001 15.0033 13.4001 15.9993C13.4001 16.9943 13.4621 17.9153 13.5671 18.7573C15.1842 18.6433 16.8112 18.6433 18.4332 18.7573C18.5382 17.9153 18.6002 16.9943 18.6002 15.9993C18.6002 15.0033 18.5382 14.0823 18.4332 13.2393C17.6222 13.2963 16.8102 13.3353 15.9982 13.3353C15.1862 13.3353 14.3752 13.2963 13.5671 13.2393Z" fill="white"/>
<path fill-rule="evenodd" clip-rule="evenodd" d="M19.6968 11.6243C21.2068 11.4543 22.6328 11.1853 23.9578 10.8283C22.4538 8.52131 19.9778 6.90731 17.1118 6.57031C18.3608 7.30131 19.2308 9.24031 19.6968 11.6243Z" fill="white"/>
</svg>
